<svg xmlns="http://www.w3.org/2000/svg" viewBox="0 0 112 120" role="img" aria-labelledby="title desc">
  <title id="title">Fließendes K-Monogramm für Konkurrenz Hairdesign</title>
  <desc id="desc">Ein geschwungenes K aus einer roten Linie mit hellem Konturlicht, ohne Rahmen.</desc>
  <defs>
    <linearGradient id="accent" x1="20" y1="18" x2="88" y2="104" gradientUnits="userSpaceOnUse">
      <stop offset="0" stop-color="#f18a8a"/>
      <stop offset="0.48" stop-color="#e05a5a"/>
      <stop offset="1" stop-color="#c9444d"/>
    </linearGradient>
  </defs>
  <g fill="none" stroke="#f7f1ef" stroke-linecap="round" stroke-linejoin="round" stroke-width="15">
    <path d="M33 19C39 34 39 48 36 63C33 79 29 91 21 103"/>
    <path d="M39 62C53 51 67 37 83 19"/>
    <path d="M40 63C56 71 70 85 87 103"/>
  </g>
  <g fill="none" stroke="url(#accent)" stroke-linecap="round" stroke-linejoin="round" stroke-width="8">
    <path d="M33 19C39 34 39 48 36 63C33 79 29 91 21 103"/>
    <path d="M39 62C53 51 67 37 83 19"/>
    <path d="M40 63C56 71 70 85 87 103"/>
  </g>
</svg>
